<?xml version="1.0" encoding="utf-8"?>
<!-- Generator: Adobe Illustrator 26.0.0, SVG Export Plug-In . SVG Version: 6.00 Build 0)  -->
<svg version="1.1" id="Capa_1" xmlns="http://www.w3.org/2000/svg" xmlns:xlink="http://www.w3.org/1999/xlink" x="0px" y="0px"
	 viewBox="0 0 612 792" style="enable-background:new 0 0 612 792;" xml:space="preserve">
<style type="text/css">
	.st0{fill:#FFFF00;}
	.st1{fill:#F8F260;}
	.st2{fill:#F9F5C5;}
	.st3{fill:#006991;}
	.st4{fill:#999999;}
	.st5{fill:#00516E;}
	.st6{opacity:0.3;fill:#666666;}
	.st7{opacity:0.3;fill:#FFFFFF;}
	.st8{opacity:0.5;fill:#999999;}
	.st9{fill:#E6E6E6;}
	.st10{opacity:0.8;fill:#999999;}
	.st11{opacity:0.5;}
	.st12{fill:#46525E;}
	.st13{fill:#FF6309;}
	.st14{fill:#00BCCF;}
	.st15{opacity:0.4;fill:#999999;}
	.st16{opacity:0.6;fill:#666666;}
	.st17{opacity:0.4;}
</style>
<g>
	<g>
		<g>
			<g>
				<rect x="45.63" y="581.56" class="st0" width="39.49" height="151.44"/>
				<rect x="51.83" y="581.56" class="st1" width="27.11" height="151.44"/>
				<rect x="58.82" y="581.56" class="st2" width="13.11" height="151.44"/>
			</g>
		</g>
		<g>
			<rect x="45.63" y="543.02" class="st3" width="39.49" height="46.53"/>
			<polygon class="st4" points="45.63,565.87 85.12,571.64 85.12,550.89 45.63,546.32 			"/>
			<g>
				<rect x="42.03" y="587.99" class="st5" width="46.72" height="11.84"/>
				<rect x="42.03" y="587.99" class="st6" width="15.77" height="11.84"/>
				<rect x="72.84" y="587.99" class="st7" width="15.77" height="11.84"/>
			</g>
		</g>
	</g>
	<g>
		<g>
			<g>
				<rect x="526.87" y="581.56" class="st0" width="39.5" height="151.44"/>
				<rect x="533.07" y="581.56" class="st1" width="27.1" height="151.44"/>
				<rect x="540.06" y="581.56" class="st2" width="13.12" height="151.44"/>
			</g>
		</g>
		<g>
			<rect x="526.87" y="543.02" class="st3" width="39.5" height="46.53"/>
			<polygon class="st4" points="566.37,565.87 526.87,571.64 526.87,550.89 566.37,546.32 			"/>
			<g>
				<rect x="523.26" y="587.99" class="st5" width="46.72" height="11.84"/>
				<rect x="554.19" y="587.99" class="st6" width="15.78" height="11.84"/>
				<rect x="523.38" y="587.99" class="st7" width="15.78" height="11.84"/>
			</g>
		</g>
	</g>
	<g>
		<g>
			<rect x="385.3" y="584.18" class="st0" width="52.94" height="148.82"/>
			<rect x="393.61" y="570.99" class="st1" width="36.33" height="162.01"/>
			<rect x="402.98" y="581.6" class="st2" width="17.58" height="151.4"/>
		</g>
	</g>
	<g>
		<g>
			<rect x="173.74" y="584.18" class="st0" width="52.94" height="148.82"/>
			<rect x="182.05" y="570.99" class="st1" width="36.33" height="162.01"/>
			<rect x="191.43" y="581.6" class="st2" width="17.58" height="151.4"/>
		</g>
	</g>
	<g>
		<g>
			<g>
				<g>
					<rect x="14.68" y="372.99" class="st4" width="48.7" height="23.33"/>
					<rect x="14.68" y="372.99" class="st8" width="12.56" height="23.33"/>
					<g>
						<rect x="6.33" y="358.6" class="st9" width="13.77" height="50.95"/>
						<rect x="6.33" y="375.45" class="st8" width="13.77" height="18.41"/>
						<rect x="10.42" y="314.37" class="st9" width="5.58" height="20.67"/>
						<rect x="10.42" y="321.2" class="st8" width="5.58" height="7.47"/>
						<rect x="10.27" y="409.56" class="st4" width="5.89" height="23.45"/>
						<rect x="10.27" y="409.56" class="st8" width="5.89" height="5.31"/>
						<rect x="11.74" y="335.04" class="st4" width="2.94" height="23.45"/>
						<rect x="11.74" y="335.04" class="st8" width="2.94" height="5.31"/>
						<path class="st3" d="M20.1,452.2c0,4.04-3.08,7.32-6.88,7.32l0,0c-3.8,0-6.89-3.27-6.89-7.32v-25.38
							c0-4.04,3.08-7.32,6.89-7.32l0,0c3.8,0,6.88,3.27,6.88,7.32V452.2z"/>
						<path class="st8" d="M13.22,399.49c-3.8,0-6.89,3.28-6.89,7.32v2.75H20.1v-2.75C20.1,402.77,17.01,399.49,13.22,399.49z"/>
						<g>
							<rect x="6.33" y="428.95" class="st8" width="13.77" height="4.06"/>
							<rect x="6.33" y="445.63" class="st8" width="13.77" height="4.06"/>
						</g>
					</g>
				</g>
				<rect x="85.93" y="356.72" class="st4" width="208.88" height="5.19"/>
				<rect x="85.93" y="381.39" class="st4" width="208.88" height="5.19"/>
				<rect x="85.93" y="332.05" class="st4" width="208.88" height="5.19"/>
				<polygon class="st10" points="262.92,386.59 304.66,386.59 304.66,381.39 264.49,381.39 				"/>
				<polygon class="st10" points="270.38,361.91 304.66,361.91 304.66,356.72 271.95,356.72 				"/>
				<polygon class="st10" points="277.83,337.24 304.66,337.24 304.66,332.05 279.39,332.05 				"/>
				<g>
					<rect x="85.93" y="332.05" class="st10" width="34.24" height="5.19"/>
					<rect x="85.93" y="356.72" class="st10" width="34.24" height="5.19"/>
					<rect x="85.93" y="381.39" class="st10" width="34.24" height="5.19"/>
					<polygon class="st3" points="137.92,521.3 167.46,521.3 167.46,458.45 111.81,458.45 88.15,197.18 23.28,95.75 0,95.75 
						0,225.75 40.11,276.91 40.11,470.03 0,494.19 0,549.08 103.05,564.13 					"/>
					<polygon class="st9" points="95.99,283.73 40.11,332.49 40.11,470.03 0,494.19 0,549.08 103.05,564.13 137.92,521.3 
						167.46,521.3 167.46,458.45 111.81,458.45 					"/>
					<g>
						<polygon class="st3" points="69.7,401.99 40.11,416.64 40.11,431.84 69.7,417.19 						"/>
						<polygon class="st3" points="69.7,424.44 40.11,439.09 40.11,454.29 69.7,439.64 						"/>
						<polygon class="st3" points="69.7,379.54 40.11,394.19 40.11,409.39 69.7,394.75 						"/>
						<polygon class="st3" points="69.7,357.09 40.11,371.74 40.11,386.94 69.7,372.3 						"/>
						<polygon class="st3" points="69.7,334.65 40.11,349.29 40.11,364.5 69.7,349.85 						"/>
					</g>
					<g class="st11">
						<polygon class="st4" points="54.33,470.03 54.33,276.91 14.22,225.75 14.22,95.75 0,95.75 0,225.75 40.11,276.91 
							40.11,470.03 0,494.19 0,549.08 14,532.53 14.22,494.19 						"/>
					</g>
					<polygon class="st8" points="88.15,197.18 75.64,232.33 96.23,446.83 111.81,458.45 					"/>
					<polygon class="st9" points="69.7,168.34 34.86,113.86 34.86,159.23 69.7,213.72 					"/>
				</g>
				<path class="st8" d="M197.99,496.49c0,9.63-7.34,17.44-16.41,17.44h-45c-9.06,0-16.41-7.81-16.41-17.44v-12.68
					c0-9.63,7.34-17.44,16.41-17.44h45c9.06,0,16.41,7.81,16.41,17.44V496.49z"/>
				<path class="st8" d="M183.58,494.84c0,7.13-5.43,12.91-12.14,12.91h-33.3c-6.71,0-12.14-5.78-12.14-12.91v-9.39
					c0-7.13,5.44-12.91,12.14-12.91h33.3c6.71,0,12.14,5.78,12.14,12.91V494.84z"/>
				<rect x="156.51" y="458.45" class="st10" width="9.66" height="62.85"/>
				<path class="st12" d="M302.95,541.88c0,3.09-2.36,5.59-5.26,5.59h-73.63c-2.9,0-5.25-2.5-5.25-5.59l0,0
					c0-3.08,2.35-5.59,5.25-5.59h73.63C300.59,536.29,302.95,538.79,302.95,541.88L302.95,541.88z"/>
				<path class="st12" d="M302.95,569.9c0,3.08-2.36,5.59-5.26,5.59h-73.63c-2.9,0-5.25-2.5-5.25-5.59l0,0
					c0-3.08,2.35-5.59,5.25-5.59h73.63C300.59,564.31,302.95,566.81,302.95,569.9L302.95,569.9z"/>
				<g>
					<rect x="166.17" y="420.59" class="st5" width="68.1" height="167.41"/>
					<rect x="166.17" y="420.59" class="st6" width="68.1" height="20.13"/>
					<rect x="166.17" y="507.76" class="st3" width="68.1" height="80.24"/>
					<rect x="187.15" y="420.59" class="st6" width="26.14" height="83.7"/>
					<rect x="187.15" y="504.29" class="st6" width="26.14" height="76.07"/>
					<g>
						<rect x="187.15" y="563.22" class="st6" width="26.14" height="8.21"/>
						<rect x="187.15" y="550.26" class="st6" width="26.14" height="8.2"/>
						<rect x="187.15" y="537.29" class="st6" width="26.14" height="8.2"/>
						<rect x="187.15" y="524.33" class="st6" width="26.14" height="8.2"/>
						<rect x="187.15" y="511.37" class="st6" width="26.14" height="8.2"/>
					</g>
				</g>
				<g>
					<g>
						<g class="st11">
							<path class="st4" d="M171.29,481.4h-27.51c-1.36,0-2.45-1.17-2.45-2.62c0-1.44,1.1-2.61,2.45-2.61h27.51
								c1.36,0,2.46,1.17,2.46,2.61C173.75,480.23,172.65,481.4,171.29,481.4z"/>
						</g>
						<g class="st11">
							<path class="st4" d="M171.29,488.82h-27.51c-1.36,0-2.45-1.17-2.45-2.62c0-1.44,1.1-2.62,2.45-2.62h27.51
								c1.36,0,2.46,1.17,2.46,2.62C173.75,487.65,172.65,488.82,171.29,488.82z"/>
						</g>
						<g class="st11">
							<path class="st4" d="M171.29,496.25h-27.51c-1.36,0-2.45-1.17-2.45-2.62c0-1.44,1.1-2.62,2.45-2.62h27.51
								c1.36,0,2.46,1.17,2.46,2.62C173.75,495.08,172.65,496.25,171.29,496.25z"/>
						</g>
						<g class="st11">
							<path class="st4" d="M171.29,503.68h-27.51c-1.36,0-2.45-1.17-2.45-2.62c0-1.44,1.1-2.62,2.45-2.62h27.51
								c1.36,0,2.46,1.17,2.46,2.62C173.75,502.5,172.65,503.68,171.29,503.68z"/>
						</g>
					</g>
					<g class="st11">
						<path class="st4" d="M149.95,478.78c0-1.44,1.1-2.61,2.46-2.61h-8.63c-1.36,0-2.45,1.17-2.45,2.61c0,1.45,1.1,2.62,2.45,2.62
							h8.63C151.06,481.4,149.95,480.23,149.95,478.78z"/>
						<path class="st4" d="M149.95,486.21c0-1.44,1.1-2.62,2.46-2.62h-8.63c-1.36,0-2.45,1.17-2.45,2.62c0,1.44,1.1,2.62,2.45,2.62
							h8.63C151.06,488.82,149.95,487.65,149.95,486.21z"/>
						<path class="st4" d="M149.95,493.63c0-1.44,1.1-2.62,2.46-2.62h-8.63c-1.36,0-2.45,1.17-2.45,2.62c0,1.45,1.1,2.62,2.45,2.62
							h8.63C151.06,496.25,149.95,495.08,149.95,493.63z"/>
						<path class="st4" d="M149.95,501.06c0-1.44,1.1-2.62,2.46-2.62h-8.63c-1.36,0-2.45,1.17-2.45,2.62c0,1.45,1.1,2.62,2.45,2.62
							h8.63C151.06,503.68,149.95,502.5,149.95,501.06z"/>
					</g>
				</g>
				<polygon class="st4" points="0,549.08 14,532.53 98.58,542.33 103.05,564.13 				"/>
				<polygon class="st4" points="98.58,542.33 137.92,521.3 103.05,564.13 				"/>
				<polygon class="st10" points="125.23,536.89 104.04,494.5 45.83,494.5 26.63,509.62 0,509.62 0,513.11 27.71,513.11 
					46.92,497.99 52.69,497.99 52.69,556.78 55.97,557.26 55.97,497.99 87.04,497.99 87.04,561.79 90.32,562.27 90.32,497.99 
					102.06,497.99 122.93,539.72 				"/>
				<rect x="151.21" y="313.31" class="st9" width="98" height="86.82"/>
				<rect x="151.21" y="313.31" class="st6" width="98" height="36.06"/>
				<rect x="151.21" y="313.31" class="st6" width="98" height="11.89"/>
				<rect x="177.84" y="313.31" class="st8" width="44.75" height="72.12"/>
				<g>
					<g>
						<g>
							<rect x="170.96" y="231.8" class="st9" width="13.77" height="50.95"/>
							<rect x="170.96" y="248.64" class="st8" width="13.77" height="18.41"/>
							<rect x="175.05" y="187.56" class="st9" width="5.58" height="20.67"/>
							<rect x="175.05" y="194.4" class="st8" width="5.58" height="7.47"/>
							<rect x="174.9" y="282.75" class="st4" width="5.89" height="23.45"/>
							<rect x="174.9" y="282.75" class="st8" width="5.89" height="5.31"/>
							<rect x="176.37" y="208.23" class="st4" width="2.95" height="23.45"/>
							<rect x="176.37" y="208.23" class="st8" width="2.95" height="5.31"/>
							<path class="st8" d="M177.85,272.69c-3.81,0-6.89,3.28-6.89,7.32v2.75h13.77V280C184.73,275.96,181.65,272.69,177.85,272.69z
								"/>
						</g>
					</g>
					<path class="st3" d="M189.13,334.77c0,6.62-5.05,11.99-11.28,11.99l0,0c-6.24,0-11.29-5.37-11.29-11.99v-28.3
						c0-6.63,5.05-12,11.29-12l0,0c6.23,0,11.28,5.37,11.28,12V334.77z"/>
					<g>
						<path class="st8" d="M186.2,320.62c0,4.91-3.74,8.88-8.35,8.88c-4.61,0-8.35-3.97-8.35-8.88c0-4.9,3.74-8.88,8.35-8.88
							C182.46,311.74,186.2,315.72,186.2,320.62z"/>
						<path class="st9" d="M182.02,320.62c0,2.45-1.87,4.44-4.18,4.44c-2.3,0-4.17-1.99-4.17-4.44c0-2.45,1.87-4.44,4.17-4.44
							C180.15,316.18,182.02,318.17,182.02,320.62z"/>
					</g>
					<g>
						<path class="st8" d="M189.13,309.95v-3.48c0-0.09-0.03-0.18-0.03-0.27h-22.52c0,0.09-0.02,0.18-0.02,0.27v3.48H189.13z"/>
						<path class="st8" d="M189.13,334.77v-3.57h-22.56v3.57c0,0.06,0.01,0.12,0.01,0.18h22.53
							C189.11,334.89,189.13,334.83,189.13,334.77z"/>
					</g>
				</g>
				<g>
					<g>
						<g>
							<rect x="215.71" y="231.8" class="st9" width="13.77" height="50.95"/>
							<rect x="215.71" y="248.64" class="st8" width="13.77" height="18.41"/>
							<rect x="219.8" y="187.56" class="st9" width="5.58" height="20.67"/>
							<rect x="219.8" y="194.4" class="st8" width="5.58" height="7.47"/>
							<rect x="219.65" y="282.75" class="st4" width="5.89" height="23.45"/>
							<rect x="219.65" y="282.75" class="st8" width="5.89" height="5.31"/>
							<rect x="221.12" y="208.23" class="st4" width="2.94" height="23.45"/>
							<rect x="221.12" y="208.23" class="st8" width="2.94" height="5.31"/>
							<path class="st8" d="M222.6,272.69c-3.8,0-6.89,3.28-6.89,7.32v2.75h13.77V280C229.48,275.96,226.39,272.69,222.6,272.69z"/>
						</g>
					</g>
					<path class="st3" d="M233.87,334.77c0,6.62-5.05,11.99-11.28,11.99l0,0c-6.23,0-11.29-5.37-11.29-11.99v-28.3
						c0-6.63,5.05-12,11.29-12l0,0c6.23,0,11.28,5.37,11.28,12V334.77z"/>
					<g>
						<path class="st8" d="M230.95,320.62c0,4.91-3.74,8.88-8.36,8.88c-4.61,0-8.35-3.97-8.35-8.88c0-4.9,3.74-8.88,8.35-8.88
							C227.21,311.74,230.95,315.72,230.95,320.62z"/>
						<path class="st9" d="M226.77,320.62c0,2.45-1.88,4.44-4.18,4.44c-2.3,0-4.17-1.99-4.17-4.44c0-2.45,1.87-4.44,4.17-4.44
							C224.89,316.18,226.77,318.17,226.77,320.62z"/>
					</g>
					<g>
						<path class="st8" d="M233.87,309.95v-3.48c0-0.09-0.02-0.18-0.03-0.27h-22.51c-0.01,0.09-0.03,0.18-0.03,0.27v3.48H233.87z"/>
						<path class="st8" d="M233.87,334.77v-3.57h-22.56v3.57c0,0.06,0.01,0.12,0.01,0.18h22.54
							C233.86,334.89,233.87,334.83,233.87,334.77z"/>
					</g>
				</g>
			</g>
			<g>
				<polygon class="st13" points="306,305.67 282.19,305.67 247.89,469.14 247.89,537.39 279.54,588 306,588 				"/>
				<polygon class="st14" points="306,367.43 306,510.4 277.56,510.4 266.29,490.5 266.29,445.48 291.56,367.43 				"/>
				<polygon class="st15" points="276.94,445.48 291.56,367.43 266.29,445.48 266.29,490.5 277.56,510.4 294.09,510.4 276.94,490.5 
									"/>
				<polygon class="st14" points="282.19,510.4 282.19,472.81 296,413.74 306,413.74 306,510.4 				"/>
				<path class="st6" d="M282.19,305.67c0,0,3.16,13.12,13.48,13.12H306v-13.12H282.19z"/>
				<polygon class="st6" points="247.89,469.14 256.92,462.44 282.19,305.67 				"/>
				<polygon class="st6" points="247.89,537.39 258.33,537.29 280.49,571.42 279.54,588 				"/>
				<path class="st16" d="M280.49,571.42L279.54,588H306v-55.46C289.32,535.05,280.49,571.42,280.49,571.42z"/>
				<polygon class="st16" points="256.92,462.44 258.33,537.29 247.89,537.39 247.89,469.14 				"/>
				<path class="st15" d="M291.56,367.43c0,0,1.49,22.96,14.44,22.96v-22.96H291.56z"/>
				<g>
					<path class="st14" d="M306,351.86h-16.87c-1.65,0-2.98,2.05-2.98,4.57c0,2.52,1.33,4.57,2.98,4.57H306V351.86z"/>
					<path class="st14" d="M286.15,331.36c0,2.53,1.33,4.57,2.98,4.57H306v-9.14h-16.87C287.48,326.8,286.15,328.84,286.15,331.36z"
						/>
					<path class="st14" d="M286.15,343.9c0,2.53,1.33,4.57,2.98,4.57H306v-9.14h-16.87C287.48,339.33,286.15,341.37,286.15,343.9z"
						/>
				</g>
				<g class="st17">
					<path class="st4" d="M293.01,356.44c0-2.53,1.34-4.57,2.99-4.57h-6.87c-1.65,0-2.98,2.05-2.98,4.57c0,2.52,1.33,4.57,2.98,4.57
						H296C294.35,361,293.01,358.96,293.01,356.44z"/>
					<path class="st4" d="M293.01,331.36c0-2.52,1.34-4.57,2.99-4.57h-6.87c-1.65,0-2.98,2.05-2.98,4.57c0,2.53,1.33,4.57,2.98,4.57
						H296C294.35,335.94,293.01,333.89,293.01,331.36z"/>
					<path class="st4" d="M293.01,343.9c0-2.52,1.34-4.57,2.99-4.57h-6.87c-1.65,0-2.98,2.04-2.98,4.57c0,2.53,1.33,4.57,2.98,4.57
						H296C294.35,348.47,293.01,346.43,293.01,343.9z"/>
				</g>
			</g>
		</g>
		<g>
			<g>
				<g>
					<rect x="548.62" y="372.99" class="st4" width="48.7" height="23.33"/>
					<rect x="584.76" y="372.99" class="st8" width="12.56" height="23.33"/>
					<g>
						<rect x="591.9" y="358.6" class="st9" width="13.77" height="50.95"/>
						<rect x="591.9" y="375.45" class="st8" width="13.77" height="18.41"/>
						<rect x="596" y="314.37" class="st9" width="5.58" height="20.67"/>
						<rect x="596" y="321.2" class="st8" width="5.58" height="7.47"/>
						<rect x="595.84" y="409.56" class="st4" width="5.88" height="23.45"/>
						<rect x="595.84" y="409.56" class="st8" width="5.88" height="5.31"/>
						<rect x="597.32" y="335.04" class="st4" width="2.94" height="23.45"/>
						<rect x="597.32" y="335.04" class="st8" width="2.94" height="5.31"/>
						<path class="st3" d="M591.9,452.2c0,4.04,3.08,7.32,6.89,7.32l0,0c3.8,0,6.89-3.27,6.89-7.32v-25.38
							c0-4.04-3.09-7.32-6.89-7.32l0,0c-3.8,0-6.89,3.27-6.89,7.32V452.2z"/>
						<path class="st8" d="M598.78,399.49c3.8,0,6.89,3.28,6.89,7.32v2.75H591.9v-2.75C591.9,402.77,594.98,399.49,598.78,399.49z"
							/>
						<g>
							<rect x="591.9" y="428.95" class="st8" width="13.77" height="4.06"/>
							<rect x="591.9" y="445.63" class="st8" width="13.77" height="4.06"/>
						</g>
					</g>
				</g>
				<rect x="317.19" y="356.72" class="st4" width="208.88" height="5.19"/>
				<rect x="317.19" y="381.39" class="st4" width="208.88" height="5.19"/>
				<rect x="317.19" y="332.05" class="st4" width="208.88" height="5.19"/>
				<polygon class="st10" points="349.08,386.59 307.34,386.59 307.34,381.39 347.5,381.39 				"/>
				<polygon class="st10" points="341.62,361.91 307.34,361.91 307.34,356.72 340.05,356.72 				"/>
				<polygon class="st10" points="334.17,337.24 307.34,337.24 307.34,332.05 332.6,332.05 				"/>
				<g>
					<rect x="491.83" y="332.05" class="st10" width="34.24" height="5.19"/>
					<rect x="491.83" y="356.72" class="st10" width="34.24" height="5.19"/>
					<rect x="491.83" y="381.39" class="st10" width="34.24" height="5.19"/>
					<polygon class="st3" points="474.07,521.3 444.54,521.3 444.54,458.45 500.19,458.45 523.85,197.18 588.72,95.75 612,95.75 
						612,225.75 571.89,276.91 571.89,470.03 612,494.19 612,549.08 508.95,564.13 					"/>
					<polygon class="st9" points="516.01,283.73 571.89,332.49 571.89,470.03 612,494.19 612,549.08 508.95,564.13 474.07,521.3 
						444.54,521.3 444.54,458.45 500.19,458.45 					"/>
					<g>
						<polygon class="st3" points="542.29,401.99 571.89,416.64 571.89,431.84 542.29,417.19 						"/>
						<polygon class="st3" points="542.29,424.44 571.89,439.09 571.89,454.29 542.29,439.64 						"/>
						<polygon class="st3" points="542.29,379.54 571.89,394.19 571.89,409.39 542.29,394.75 						"/>
						<polygon class="st3" points="542.29,357.09 571.89,371.74 571.89,386.94 542.29,372.3 						"/>
						<polygon class="st3" points="542.29,334.65 571.89,349.29 571.89,364.5 542.29,349.85 						"/>
					</g>
					<g class="st11">
						<polygon class="st4" points="557.67,470.03 557.67,276.91 597.77,225.75 597.77,95.75 612,95.75 612,225.75 571.89,276.91 
							571.89,470.03 612,494.19 612,549.08 597.99,532.53 597.77,494.19 						"/>
					</g>
					<polygon class="st8" points="523.85,197.18 536.36,232.33 515.77,446.83 500.19,458.45 					"/>
					<polygon class="st9" points="542.29,168.34 577.14,113.86 577.14,159.23 542.29,213.72 					"/>
				</g>
				<path class="st8" d="M414.01,496.49c0,9.63,7.34,17.44,16.41,17.44h44.99c9.06,0,16.41-7.81,16.41-17.44v-12.68
					c0-9.63-7.35-17.44-16.41-17.44h-44.99c-9.06,0-16.41,7.81-16.41,17.44V496.49z"/>
				<path class="st8" d="M428.42,494.84c0,7.13,5.44,12.91,12.15,12.91h33.3c6.7,0,12.14-5.78,12.14-12.91v-9.39
					c0-7.13-5.44-12.91-12.14-12.91h-33.3c-6.71,0-12.15,5.78-12.15,12.91V494.84z"/>
				<rect x="445.83" y="458.45" class="st10" width="9.65" height="62.85"/>
				<path class="st12" d="M309.05,541.88c0,3.09,2.36,5.59,5.25,5.59h73.63c2.9,0,5.25-2.5,5.25-5.59l0,0
					c0-3.08-2.35-5.59-5.25-5.59H314.3C311.41,536.29,309.05,538.79,309.05,541.88L309.05,541.88z"/>
				<path class="st12" d="M309.05,569.9c0,3.08,2.36,5.59,5.25,5.59h73.63c2.9,0,5.25-2.5,5.25-5.59l0,0c0-3.08-2.35-5.59-5.25-5.59
					H314.3C311.41,564.31,309.05,566.81,309.05,569.9L309.05,569.9z"/>
				<g>
					<rect x="377.73" y="420.59" class="st5" width="68.1" height="167.41"/>
					<rect x="377.73" y="420.59" class="st6" width="68.1" height="20.13"/>
					<rect x="377.73" y="507.76" class="st3" width="68.1" height="80.24"/>
					<rect x="398.71" y="420.59" class="st6" width="26.14" height="83.7"/>
					<rect x="398.71" y="504.29" class="st6" width="26.14" height="76.07"/>
					<g>
						<rect x="398.71" y="563.22" class="st6" width="26.14" height="8.21"/>
						<rect x="398.71" y="550.26" class="st6" width="26.14" height="8.2"/>
						<rect x="398.71" y="537.29" class="st6" width="26.14" height="8.2"/>
						<rect x="398.71" y="524.33" class="st6" width="26.14" height="8.2"/>
						<rect x="398.71" y="511.37" class="st6" width="26.14" height="8.2"/>
					</g>
				</g>
				<g>
					<g>
						<g class="st11">
							<path class="st4" d="M440.71,481.4h27.5c1.36,0,2.46-1.17,2.46-2.62c0-1.44-1.1-2.61-2.46-2.61h-27.5
								c-1.36,0-2.46,1.17-2.46,2.61C438.25,480.23,439.35,481.4,440.71,481.4z"/>
						</g>
						<g class="st11">
							<path class="st4" d="M440.71,488.82h27.5c1.36,0,2.46-1.17,2.46-2.62c0-1.44-1.1-2.62-2.46-2.62h-27.5
								c-1.36,0-2.46,1.17-2.46,2.62C438.25,487.65,439.35,488.82,440.71,488.82z"/>
						</g>
						<g class="st11">
							<path class="st4" d="M440.71,496.25h27.5c1.36,0,2.46-1.17,2.46-2.62c0-1.44-1.1-2.62-2.46-2.62h-27.5
								c-1.36,0-2.46,1.17-2.46,2.62C438.25,495.08,439.35,496.25,440.71,496.25z"/>
						</g>
						<g class="st11">
							<path class="st4" d="M440.71,503.68h27.5c1.36,0,2.46-1.17,2.46-2.62c0-1.44-1.1-2.62-2.46-2.62h-27.5
								c-1.36,0-2.46,1.17-2.46,2.62C438.25,502.5,439.35,503.68,440.71,503.68z"/>
						</g>
					</g>
					<g class="st11">
						<path class="st4" d="M462.05,478.78c0-1.44-1.1-2.61-2.46-2.61h8.63c1.36,0,2.46,1.17,2.46,2.61c0,1.45-1.1,2.62-2.46,2.62
							h-8.63C460.94,481.4,462.05,480.23,462.05,478.78z"/>
						<path class="st4" d="M462.05,486.21c0-1.44-1.1-2.62-2.46-2.62h8.63c1.36,0,2.46,1.17,2.46,2.62c0,1.44-1.1,2.62-2.46,2.62
							h-8.63C460.94,488.82,462.05,487.65,462.05,486.21z"/>
						<path class="st4" d="M462.05,493.63c0-1.44-1.1-2.62-2.46-2.62h8.63c1.36,0,2.46,1.17,2.46,2.62c0,1.45-1.1,2.62-2.46,2.62
							h-8.63C460.94,496.25,462.05,495.08,462.05,493.63z"/>
						<path class="st4" d="M462.05,501.06c0-1.44-1.1-2.62-2.46-2.62h8.63c1.36,0,2.46,1.17,2.46,2.62c0,1.45-1.1,2.62-2.46,2.62
							h-8.63C460.94,503.68,462.05,502.5,462.05,501.06z"/>
					</g>
				</g>
				<polygon class="st4" points="612,549.08 597.99,532.53 513.42,542.33 508.95,564.13 				"/>
				<polygon class="st4" points="513.42,542.33 474.07,521.3 508.95,564.13 				"/>
				<polygon class="st10" points="486.77,536.89 507.96,494.5 566.16,494.5 585.37,509.62 612,509.62 612,513.11 584.29,513.11 
					565.08,497.99 559.31,497.99 559.31,556.78 556.02,557.26 556.02,497.99 524.96,497.99 524.96,561.79 521.68,562.27 
					521.68,497.99 509.94,497.99 489.07,539.72 				"/>
				<rect x="362.78" y="313.31" class="st9" width="98" height="86.82"/>
				<rect x="362.78" y="313.31" class="st6" width="98" height="36.06"/>
				<rect x="362.78" y="313.31" class="st6" width="98" height="11.89"/>
				<rect x="389.4" y="313.31" class="st8" width="44.75" height="72.12"/>
				<g>
					<g>
						<g>
							<rect x="427.27" y="231.8" class="st9" width="13.77" height="50.95"/>
							<rect x="427.27" y="248.64" class="st8" width="13.77" height="18.41"/>
							<rect x="431.36" y="187.56" class="st9" width="5.58" height="20.67"/>
							<rect x="431.36" y="194.4" class="st8" width="5.58" height="7.47"/>
							<rect x="431.21" y="282.75" class="st4" width="5.88" height="23.45"/>
							<rect x="431.21" y="282.75" class="st8" width="5.88" height="5.31"/>
							<rect x="432.69" y="208.23" class="st4" width="2.94" height="23.45"/>
							<rect x="432.69" y="208.23" class="st8" width="2.94" height="5.31"/>
							<path class="st8" d="M434.15,272.69c3.81,0,6.89,3.28,6.89,7.32v2.75h-13.77V280C427.27,275.96,430.35,272.69,434.15,272.69z
								"/>
						</g>
					</g>
					<path class="st3" d="M422.87,334.77c0,6.62,5.05,11.99,11.28,11.99l0,0c6.23,0,11.29-5.37,11.29-11.99v-28.3
						c0-6.63-5.05-12-11.29-12l0,0c-6.23,0-11.28,5.37-11.28,12V334.77z"/>
					<g>
						<path class="st8" d="M425.8,320.62c0,4.91,3.74,8.88,8.35,8.88c4.61,0,8.35-3.97,8.35-8.88c0-4.9-3.74-8.88-8.35-8.88
							C429.54,311.74,425.8,315.72,425.8,320.62z"/>
						<path class="st9" d="M429.98,320.62c0,2.45,1.88,4.44,4.18,4.44c2.3,0,4.17-1.99,4.17-4.44c0-2.45-1.87-4.44-4.17-4.44
							C431.85,316.18,429.98,318.17,429.98,320.62z"/>
					</g>
					<g>
						<path class="st8" d="M422.87,309.95v-3.48c0-0.09,0.02-0.18,0.03-0.27h22.51c0.01,0.09,0.03,0.18,0.03,0.27v3.48H422.87z"/>
						<path class="st8" d="M422.87,334.77v-3.57h22.56v3.57c0,0.06-0.01,0.12-0.01,0.18h-22.54
							C422.89,334.89,422.87,334.83,422.87,334.77z"/>
					</g>
				</g>
				<g>
					<g>
						<g>
							<rect x="382.52" y="231.8" class="st9" width="13.77" height="50.95"/>
							<rect x="382.52" y="248.64" class="st8" width="13.77" height="18.41"/>
							<rect x="386.62" y="187.56" class="st9" width="5.58" height="20.67"/>
							<rect x="386.62" y="194.4" class="st8" width="5.58" height="7.47"/>
							<rect x="386.46" y="282.75" class="st4" width="5.88" height="23.45"/>
							<rect x="386.46" y="282.75" class="st8" width="5.88" height="5.31"/>
							<rect x="387.94" y="208.23" class="st4" width="2.94" height="23.45"/>
							<rect x="387.94" y="208.23" class="st8" width="2.94" height="5.31"/>
							<path class="st8" d="M389.4,272.69c3.8,0,6.89,3.28,6.89,7.32v2.75h-13.77V280C382.52,275.96,385.6,272.69,389.4,272.69z"/>
						</g>
					</g>
					<path class="st3" d="M378.13,334.77c0,6.62,5.05,11.99,11.28,11.99l0,0c6.23,0,11.29-5.37,11.29-11.99v-28.3
						c0-6.63-5.05-12-11.29-12l0,0c-6.23,0-11.28,5.37-11.28,12V334.77z"/>
					<g>
						<path class="st8" d="M381.05,320.62c0,4.91,3.74,8.88,8.35,8.88c4.62,0,8.35-3.97,8.35-8.88c0-4.9-3.74-8.88-8.35-8.88
							C384.79,311.74,381.05,315.72,381.05,320.62z"/>
						<path class="st9" d="M385.23,320.62c0,2.45,1.88,4.44,4.18,4.44c2.3,0,4.17-1.99,4.17-4.44c0-2.45-1.87-4.44-4.17-4.44
							C387.11,316.18,385.23,318.17,385.23,320.62z"/>
					</g>
					<g>
						<path class="st8" d="M378.13,309.95v-3.48c0-0.09,0.02-0.18,0.02-0.27h22.52c0,0.09,0.03,0.18,0.03,0.27v3.48H378.13z"/>
						<path class="st8" d="M378.13,334.77v-3.57h22.56v3.57c0,0.06-0.01,0.12-0.01,0.18h-22.54
							C378.14,334.89,378.13,334.83,378.13,334.77z"/>
					</g>
				</g>
			</g>
			<g>
				<polygon class="st13" points="306,305.67 329.81,305.67 364.11,469.14 364.11,537.39 332.46,588 306,588 				"/>
				<polygon class="st14" points="306,367.43 306,510.4 334.44,510.4 345.7,490.5 345.7,445.48 320.44,367.43 				"/>
				<polygon class="st7" points="335.06,445.48 320.44,367.43 345.7,445.48 345.7,490.5 334.44,510.4 317.91,510.4 335.06,490.5 
									"/>
				<polygon class="st14" points="329.81,510.4 329.81,472.81 316,413.74 306,413.74 306,510.4 				"/>
				<path class="st6" d="M329.81,305.67c0,0-3.16,13.12-13.49,13.12H306v-13.12H329.81z"/>
				<polygon class="st6" points="364.11,469.14 355.08,462.44 329.81,305.67 				"/>
				<polygon class="st6" points="364.11,537.39 353.67,537.29 331.51,571.42 332.46,588 				"/>
				<path class="st16" d="M331.51,571.42l0.95,16.57H306v-55.46C322.68,535.05,331.51,571.42,331.51,571.42z"/>
				<polygon class="st16" points="355.08,462.44 353.67,537.29 364.11,537.39 364.11,469.14 				"/>
				<path class="st15" d="M320.44,367.43c0,0-1.49,22.96-14.44,22.96v-22.96H320.44z"/>
				<g>
					<path class="st14" d="M306,351.86h16.87c1.65,0,2.98,2.05,2.98,4.57c0,2.52-1.33,4.57-2.98,4.57H306V351.86z"/>
					<path class="st14" d="M325.85,331.36c0,2.53-1.33,4.57-2.98,4.57H306v-9.14h16.87C324.52,326.8,325.85,328.84,325.85,331.36z"
						/>
					<path class="st14" d="M325.85,343.9c0,2.53-1.33,4.57-2.98,4.57H306v-9.14h16.87C324.52,339.33,325.85,341.37,325.85,343.9z"/>
				</g>
				<g class="st17">
					<path class="st4" d="M318.98,356.44c0-2.53-1.33-4.57-2.98-4.57h6.87c1.65,0,2.98,2.05,2.98,4.57c0,2.52-1.33,4.57-2.98,4.57
						H316C317.65,361,318.98,358.96,318.98,356.44z"/>
					<path class="st4" d="M318.98,331.36c0-2.52-1.33-4.57-2.98-4.57h6.87c1.65,0,2.98,2.05,2.98,4.57c0,2.53-1.33,4.57-2.98,4.57
						H316C317.65,335.94,318.98,333.89,318.98,331.36z"/>
					<path class="st4" d="M318.98,343.9c0-2.52-1.33-4.57-2.98-4.57h6.87c1.65,0,2.98,2.04,2.98,4.57c0,2.53-1.33,4.57-2.98,4.57
						H316C317.65,348.47,318.98,346.43,318.98,343.9z"/>
				</g>
			</g>
		</g>
	</g>
	<g>
		<rect x="159.95" y="585.32" class="st5" width="80.56" height="20.41"/>
		<rect x="159.95" y="585.32" class="st6" width="27.2" height="20.41"/>
		<rect x="213.09" y="585.32" class="st7" width="27.2" height="20.41"/>
	</g>
	<g>
		<rect x="371.5" y="585.32" class="st5" width="80.56" height="20.41"/>
		<rect x="424.86" y="585.32" class="st6" width="27.2" height="20.41"/>
		<rect x="371.72" y="585.32" class="st7" width="27.2" height="20.41"/>
	</g>
</g>
</svg>
